<?xml version="1.0" encoding="utf-8"?>
<svg version="1.1" xmlns:xlink="http://www.w3.org/1999/xlink" width="754px" height="508px" xmlns="http://www.w3.org/2000/svg">
  <defs>
    <mask fill="white" id="clip1313">
      <path d="M 0 498  L 0 0  L 744 0  L 744 498  L 354.523007856341 498  L 0 498  Z " fill-rule="evenodd" />
    </mask>
    <filter x="3px" y="-10px" width="754px" height="508px" filterUnits="userSpaceOnUse" id="filter1314">
      <feOffset dx="5" dy="5" in="SourceAlpha" result="shadowOffsetInner" />
      <feGaussianBlur stdDeviation="2.5" in="shadowOffsetInner" result="shadowGaussian" />
      <feComposite in2="shadowGaussian" operator="atop" in="SourceAlpha" result="shadowComposite" />
      <feColorMatrix type="matrix" values="0 0 0 0 0  0 0 0 0 0  0 0 0 0 0  0 0 0 0.349019607843137 0  " in="shadowComposite" />
    </filter>
    <g id="widget1315">
      <path d="M 0 498  L 0 0  L 744 0  L 744 498  L 354.523007856341 498  L 0 498  Z " fill-rule="nonzero" fill="#345501" stroke="none" transform="matrix(1 0 0 1 3 -10 )" />
      <path d="M 0 498  L 0 0  L 744 0  L 744 498  L 354.523007856341 498  L 0 498  Z " stroke-width="4" stroke="#ffffff" fill="none" transform="matrix(1 0 0 1 3 -10 )" mask="url(#clip1313)" />
    </g>
  </defs>
  <g transform="matrix(1 0 0 1 -3 10 )">
    <use xlink:href="#widget1315" filter="url(#filter1314)" />
    <use xlink:href="#widget1315" />
  </g>
</svg>