<?xml version="1.0" encoding="utf-8"?>
<svg version="1.1" xmlns:xlink="http://www.w3.org/1999/xlink" width="320px" height="560px" xmlns="http://www.w3.org/2000/svg">
  <defs>
    <filter x="5px" y="5997px" width="320px" height="560px" filterUnits="userSpaceOnUse" id="filter1334">
      <feOffset dx="5" dy="5" in="SourceAlpha" result="shadowOffsetInner" />
      <feGaussianBlur stdDeviation="2.5" in="shadowOffsetInner" result="shadowGaussian" />
      <feComposite in2="shadowGaussian" operator="atop" in="SourceAlpha" result="shadowComposite" />
      <feColorMatrix type="matrix" values="0 0 0 0 0  0 0 0 0 0  0 0 0 0 0  0 0 0 0.349019607843137 0  " in="shadowComposite" />
    </filter>
    <g id="widget1335">
      <path d="M 6 6022  A 24 24 0 0 1 30 5998 L 290 5998  A 24 24 0 0 1 314 6022 L 314 6522  A 24 24 0 0 1 290 6546 L 30 6546  A 24 24 0 0 1 6 6522 L 6 6022  Z " fill-rule="nonzero" fill="#ffffff" stroke="none" fill-opacity="0" />
      <path d="M 5.5 6022  A 24.5 24.5 0 0 1 30 5997.5 L 290 5997.5  A 24.5 24.5 0 0 1 314.5 6022 L 314.5 6522  A 24.5 24.5 0 0 1 290 6546.5 L 30 6546.5  A 24.5 24.5 0 0 1 5.5 6522 L 5.5 6022  Z " stroke-width="1" stroke="#ffffff" fill="none" stroke-opacity="0.996078431372549" />
    </g>
  </defs>
  <g transform="matrix(1 0 0 1 -5 -5997 )">
    <use xlink:href="#widget1335" filter="url(#filter1334)" />
    <use xlink:href="#widget1335" />
  </g>
</svg>